<svg xmlns="http://www.w3.org/2000/svg" xml:space="preserve" viewBox="0 0 2400 2800"><path fill="#fff" d="m1400 1700-350 350v-350H600V200h1600v1100l-400 400z"/><path fill="#9146ff" d="M500 0 0 500v1800h600v500l500-500h400l900-900V0Zm1700 1300-400 400h-400l-350 350v-350H600V200h1600z"/><path fill="#9146ff" d="M808 370h396q106 0 150 45 46 46 46 120v222q0 58-27 100-27 40-88 56l157 313h-250l-136-304h-15v304H808Zm358 364V566q0-29-33-29h-92v226h92q33 0 33-29zm852 325v167h-525V370h513v167h-280v174h242v167h-242v181z"/></svg>